<svg width="48" height="48" viewBox="0 0 48 48" fill="none" xmlns="http://www.w3.org/2000/svg">
<rect y="48" width="48" height="48" rx="24" transform="rotate(-90 0 48)" fill="#2E3F46"/>
<mask id="mask0_192_1123" style="mask-type:alpha" maskUnits="userSpaceOnUse" x="12" y="12" width="24" height="24">
<rect x="12" y="36" width="24" height="24" transform="rotate(-90 12 36)" fill="#D9D9D9"/>
</mask>
<g mask="url(#mask0_192_1123)">
<path d="M28.175 25.0002H17C16.7167 25.0002 16.4792 24.9044 16.2875 24.7127C16.0958 24.521 16 24.2835 16 24.0002C16 23.7169 16.0958 23.4794 16.2875 23.2877C16.4792 23.096 16.7167 23.0002 17 23.0002H28.175L23.275 18.1002C23.075 17.9002 22.9792 17.6669 22.9875 17.4002C22.9958 17.1335 23.1 16.9002 23.3 16.7002C23.5 16.5169 23.7333 16.421 24 16.4127C24.2667 16.4044 24.5 16.5002 24.7 16.7002L31.3 23.3002C31.4 23.4002 31.4708 23.5085 31.5125 23.6252C31.5542 23.7419 31.575 23.8669 31.575 24.0002C31.575 24.1335 31.5542 24.2585 31.5125 24.3752C31.4708 24.4919 31.4 24.6002 31.3 24.7002L24.7 31.3002C24.5167 31.4835 24.2875 31.5752 24.0125 31.5752C23.7375 31.5752 23.5 31.4835 23.3 31.3002C23.1 31.1002 23 30.8627 23 30.5877C23 30.3127 23.1 30.0752 23.3 29.8752L28.175 25.0002Z" fill="white"/>
</g>
</svg>
