<svg width="155" height="40" viewBox="0 0 155 40" fill="none" xmlns="http://www.w3.org/2000/svg">
<g clip-path="url(#clip0_102_1738)">
<path d="M15.6644 22.6835L8.14722 15.4699L0.00708008 0.0743408L25.2808 4.61815L26.6575 25.3794L28.7722 33.2839L30.8245 25.3794L32.1542 4.61815L57.0875 0.0743408L49.675 15.4961L41.5978 22.6783L46.8847 6.72257L39.3047 8.25635L36.232 25.3794L28.7672 39.7856L21.0092 25.3794L18.1666 8.09407L10.7227 6.88485L15.6644 22.6835Z" fill="#1A2B32"/>
<path d="M64.9583 11.7459H75.3361V15.8969H72.2228V30.4255L68.0716 26.2745V15.8969H65.9961L64.9583 16.9347V11.7459Z" fill="#1A2B32"/>
<path d="M80.6806 11.7459V16.9347H85.8692V11.7459H90.0203V26.2745H85.8692V21.0857H80.6806V26.2745H76.5295V12.7836L75.4917 11.7459H80.6806Z" fill="#1A2B32"/>
<path d="M101.104 11.7459V15.8969H95.9147V17.9724H102.141L95.9147 21.0857V22.1235H101.104V26.2745H91.7639V12.7836L90.7261 11.7459H101.104Z" fill="#1A2B32"/>
<path d="M105.441 11.7459L108.555 20.048L111.668 10.7081L114.781 20.048L117.895 11.7459H122.046L116.857 26.2745H112.706L111.668 23.3688L110.63 26.2745H106.479L101.622 12.6799L100.689 11.7459H105.441Z" fill="#1A2B32"/>
<path d="M128.023 26.2745C126.017 26.2745 124.304 25.5654 122.886 24.1471C121.468 22.7289 120.759 21.0165 120.759 19.0102C120.759 17.0039 121.468 15.2916 122.886 13.8733C124.304 12.455 126.017 11.7459 128.023 11.7459C130.029 11.7459 131.742 12.455 133.16 13.8733C134.578 15.2916 135.288 17.0039 135.288 19.0102C135.288 21.0165 134.578 22.7289 133.16 24.1471C131.742 25.5654 130.029 26.2745 128.023 26.2745ZM128.023 22.1235C128.881 22.1235 129.614 21.8191 130.223 21.2103C130.832 20.6014 131.136 19.8681 131.136 19.0102C131.136 18.1523 130.832 17.419 130.223 16.8102C129.614 16.2013 128.881 15.8969 128.023 15.8969C127.165 15.8969 126.432 16.2013 125.823 16.8102C125.214 17.419 124.91 18.1523 124.91 19.0102C124.91 19.8681 125.214 20.6014 125.823 21.2103C126.432 21.8191 127.165 22.1235 128.023 22.1235Z" fill="#1A2B32"/>
<path d="M140.248 11.7459V22.1235H144.399L140.248 26.2745H136.097V12.7836L135.059 11.7459H140.248Z" fill="#1A2B32"/>
<path d="M154.258 11.7459V15.8969H148.031V17.9724H154.258L148.031 22.1235V26.2745H143.88V12.7836L142.842 11.7459H154.258Z" fill="#1A2B32"/>
</g>
<defs>
<clipPath id="clip0_102_1738">
<rect width="154.444" height="40" fill="white"/>
</clipPath>
</defs>
</svg>
